<?xml version="1.0" standalone="no"?>
<!DOCTYPE svg PUBLIC "-//W3C//DTD SVG 20010904//EN"
 "http://www.w3.org/TR/2001/REC-SVG-20010904/DTD/svg10.dtd">
<svg version="1.0" xmlns="http://www.w3.org/2000/svg"
 width="141.000000pt" height="89.000000pt" viewBox="0 0 141.000000 89.000000"
 preserveAspectRatio="xMidYMid meet">

<g transform="translate(0.000000,89.000000) scale(0.100000,-0.100000)"
fill="#fff" stroke="none">
<path d="M794 879 c-107 -31 -183 -211 -156 -371 26 -150 106 -238 218 -238
96 0 170 62 208 173 20 61 21 197 1 265 -40 133 -153 205 -271 171z m104 -59
c30 -32 43 -88 49 -203 11 -208 -41 -340 -114 -292 -42 28 -56 78 -61 219 -5
139 5 210 38 264 23 38 59 43 88 12z"/>
<path d="M496 861 c-24 -27 -104 -68 -158 -81 -35 -9 -48 -17 -48 -30 0 -16 5
-17 38 -9 20 5 49 12 65 15 l27 7 0 -247 0 -246 70 0 70 0 0 305 0 305 -23 0
c-13 0 -31 -8 -41 -19z"/>
<path d="M60 670 c0 -31 37 -80 60 -80 6 0 8 -11 4 -27 -9 -37 -11 -39 -31
-21 -10 9 -28 19 -41 23 -22 6 -23 4 -20 -26 2 -25 11 -39 35 -54 28 -17 32
-25 33 -64 0 -42 -1 -43 -18 -28 -10 10 -32 17 -49 17 -26 0 -30 -3 -26 -20 7
-25 49 -60 73 -60 17 0 30 -26 30 -62 0 -15 -3 -15 -28 -3 -27 14 -72 10 -72
-5 0 -24 40 -53 76 -55 31 -2 40 -7 45 -26 13 -44 11 -49 -14 -38 -25 11 -77
-3 -77 -21 0 -22 50 -43 89 -36 36 5 40 4 51 -24 12 -29 40 -60 40 -44 0 5 -9
23 -20 39 -26 40 -25 47 9 66 28 16 47 66 32 82 -12 12 -60 -13 -66 -35 -9
-26 -22 -22 -29 7 -8 31 -1 45 23 45 21 0 46 26 55 58 7 19 4 22 -23 22 -20 0
-36 -8 -49 -25 -17 -21 -21 -22 -26 -9 -3 9 -6 26 -6 39 0 18 7 24 35 29 33 7
65 37 65 63 0 18 -51 16 -78 -3 -22 -15 -22 -14 -22 25 l0 41 40 0 c41 0 87
31 75 50 -9 14 -79 12 -93 -2 -9 -9 -12 -8 -12 8 0 10 3 29 6 41 6 20 11 22
43 17 31 -5 43 -1 66 18 l28 24 -32 14 c-25 10 -38 10 -57 1 -35 -16 -41 -14
-48 14 -5 20 -49 55 -71 55 -3 0 -5 -14 -5 -30z"/>
<path d="M1308 684 c-15 -8 -31 -26 -34 -39 -7 -28 -13 -30 -48 -14 -19 9 -32
9 -57 -1 l-32 -14 28 -24 c23 -19 35 -23 66 -18 32 5 37 3 43 -17 3 -12 6 -31
6 -41 0 -16 -3 -17 -12 -8 -14 14 -84 16 -93 2 -12 -19 34 -50 75 -50 l40 0 0
-41 c0 -39 0 -40 -22 -25 -27 19 -78 21 -78 3 0 -26 32 -56 65 -63 28 -5 35
-11 35 -29 0 -13 -3 -30 -6 -39 -5 -13 -9 -12 -26 9 -13 17 -29 25 -49 25 -27
0 -30 -3 -23 -23 9 -31 34 -57 55 -57 24 0 31 -14 23 -45 -7 -29 -20 -33 -29
-7 -6 22 -54 47 -66 35 -15 -16 4 -66 32 -82 34 -19 35 -26 9 -66 -11 -16 -20
-34 -20 -39 0 -16 28 15 40 44 11 28 15 29 51 24 39 -7 89 14 89 36 0 18 -52
32 -77 21 -25 -11 -27 -6 -14 38 5 19 14 24 45 26 36 2 76 31 76 55 0 15 -45
19 -72 5 -25 -12 -28 -12 -28 3 0 36 13 62 30 62 24 0 66 35 73 60 4 17 0 20
-26 20 -17 0 -39 -7 -49 -17 -17 -15 -18 -14 -18 30 0 32 4 47 13 47 23 0 57
45 57 74 0 24 -3 26 -22 20 -13 -3 -31 -13 -41 -22 -20 -18 -22 -16 -31 21 -4
16 -2 27 4 27 23 0 60 49 60 80 0 34 -4 35 -42 14z"/>
<path d="M439 65 c-21 -50 -24 -65 -13 -65 8 0 17 7 20 15 8 20 54 19 69 -1 6
-9 17 -15 22 -13 7 3 2 27 -14 67 -33 82 -50 81 -84 -3z m55 9 c9 -23 8 -24
-13 -24 -14 0 -18 5 -14 20 6 24 19 26 27 4z"/>
<path d="M570 65 c0 -50 3 -65 14 -65 10 0 16 13 18 38 l3 37 23 -37 c36 -59
52 -50 52 27 0 50 -3 65 -14 65 -10 0 -16 -13 -18 -37 l-3 -38 -23 38 c-36 58
-52 49 -52 -28z"/>
<path d="M725 105 c-14 -13 -25 -31 -25 -40 0 -23 45 -65 70 -65 25 0 70 42
70 65 0 23 -45 65 -70 65 -11 0 -32 -11 -45 -25z m80 -24 c9 -28 -5 -51 -30
-51 -29 0 -48 24 -40 50 9 27 61 28 70 1z"/>
<path d="M872 118 c-22 -22 -14 -48 18 -59 39 -14 39 -31 0 -27 -38 4 -42 -14
-6 -27 33 -11 60 3 64 34 3 17 -4 25 -27 34 -39 15 -40 27 -1 27 32 0 40 14
14 24 -25 9 -49 7 -62 -6z"/>
</g>
</svg>
